<svg xmlns="http://www.w3.org/2000/svg" width="1500" height="980" viewBox="0 0 1500 980"><style>.t{font:700 50px -apple-system,BlinkMacSystemFont,'Segoe UI','Noto Sans SC',sans-serif;fill:#14213a}.h{font:700 28px -apple-system,BlinkMacSystemFont,'Segoe UI','Noto Sans SC',sans-serif;fill:white}.b{font:500 22px -apple-system,BlinkMacSystemFont,'Segoe UI','Noto Sans SC',sans-serif;fill:#28384f}.s{font:500 19px -apple-system,BlinkMacSystemFont,'Segoe UI','Noto Sans SC',sans-serif;fill:#5b6a80}</style><rect width="1500" height="980" fill="#f5f8ff"/><text x="65" y="75" class="t">历史对话图解知识库</text><text x="68" y="117" class="s">将此前对话中的图解按主题归档到 Notion，并保留后续自动写入规则</text><g transform="translate(80 175)"><rect width="390" height="180" rx="30" fill="#2d6cdf"/><text x="30" y="52" class="h">LeetCode / 算法</text><text x="30" y="96" class="b" fill="white">滑动窗口 · 回溯 · DP</text><text x="30" y="135" class="b" fill="white">树 · 图 · 栈 · 堆 · 二分</text></g><g transform="translate(555 175)"><rect width="390" height="180" rx="30" fill="#7657c7"/><text x="30" y="52" class="h">AI Agent</text><text x="30" y="96" class="b" fill="white">Harness · Tool Calling</text><text x="30" y="135" class="b" fill="white">OpenClaw · Codex · Skill</text></g><g transform="translate(1030 175)"><rect width="390" height="180" rx="30" fill="#df7a38"/><text x="30" y="52" class="h">LLM / 模型原理</text><text x="30" y="96" class="b" fill="white">训练 · Transformer</text><text x="30" y="135" class="b" fill="white">Attention · RNN · Scaling</text></g><g transform="translate(80 435)"><rect width="390" height="180" rx="30" fill="#168f6d"/><text x="30" y="52" class="h">系统与基础设施</text><text x="30" y="96" class="b" fill="white">沙箱 · microVM</text><text x="30" y="135" class="b" fill="white">Computer Use · 安全隔离</text></g><g transform="translate(555 435)"><rect width="390" height="180" rx="30" fill="#2d829b"/><text x="30" y="52" class="h">产品与系统架构</text><text x="30" y="96" class="b" fill="white">ClawNote · EduFlow</text><text x="30" y="135" class="b" fill="white">AI Coding 产品流程</text></g><g transform="translate(1030 435)"><rect width="390" height="180" rx="30" fill="#667b5f"/><text x="30" y="52" class="h">空间与室内设计</text><text x="30" y="96" class="b" fill="white">户型优化 · 四套方案</text><text x="30" y="135" class="b" fill="white">简约原木 · 温暖极简</text></g><g transform="translate(150 735)"><rect width="1200" height="120" rx="32" fill="#18365e"/><text x="50" y="52" class="h">自动化规则</text><text x="50" y="92" class="b" fill="white">以后每次生成图解：识别主题 → 上传图解资源 → 写入对应 Notion 目录 → 返回页面链接</text></g></svg>